<svg xmlns="http://www.w3.org/2000/svg" viewBox="0 0 320 200" fill="none" stroke="#000" stroke-width="3" stroke-linecap="round" stroke-linejoin="round" font-family="JetBrains Mono, monospace"><path d="M40 18h96l24 24v140H40z" fill="#fff"/><path d="M136 18v24h24"/><g stroke-width="2"><rect x="56" y="60" width="10" height="10"/><path d="M76 65h60"/><rect x="56" y="86" width="10" height="10"/><path d="M76 91h60"/><rect x="56" y="112" width="10" height="10"/><path d="M76 117h44"/></g><path d="M57 64l4 4 7-8M57 90l4 4 7-8"/><path d="M186 120h112" stroke="#8F8F87"/><g fill="#fff"><circle cx="196" cy="120" r="7"/><circle cx="232" cy="120" r="7"/><circle cx="268" cy="120" r="7"/></g><circle cx="298" cy="120" r="9" fill="#FFFF00"/><text x="190" y="144" font-size="9" fill="#000" stroke="none">H1   H2   H3   H4</text></svg>
